<svg width="375" height="667" viewBox="0 0 375 667" fill="none" xmlns="http://www.w3.org/2000/svg">
<g clip-path="url(#clip0)">
<rect width="375" height="667" fill="white"/>
<g filter="url(#filter0_d)">
<path d="M6.67177 -139.005C6.67177 -139.005 -12.6331 -138.86 -32.2623 -115.171C-51.8915 -91.4821 -87.7501 -79.6336 -116.381 -83.7849C-158.842 -89.8319 -220.158 11.6837 -148.211 47.2715C-76.2639 82.8593 -83.4062 138.839 -37.2317 189.445C8.94281 240.052 123.755 180.482 98.8411 119.842C73.9273 59.2013 37.1034 -5.74248 53.0018 -57.9418C69.1716 -110.155 61.5268 -138.062 6.67177 -139.005Z" fill="#2E95D2"/>
<path d="M-61.1682 11.7959C-97.135 51.5299 -112.638 65.2214 -144.718 49.1377C-76.2983 84.9011 -82.5382 139.884 -37.0893 189.574C-33.346 193.74 -29.2429 196.936 -24.7532 199.704C-24.1134 190.697 -21.1802 178.583 -13.4232 162.284C7.75073 117.711 27.8489 89.7824 22.2767 46.1315C16.7045 2.48068 -24.0411 -29.2198 -61.1682 11.7959Z" fill="#40A3DB"/>
<path d="M-6.58601 48.2478C1.74402 39.0453 1.03674 24.8324 -8.16577 16.5024C-17.3683 8.17235 -31.5812 8.87959 -39.9113 18.0821C-48.2413 27.2846 -47.534 41.4976 -38.3315 49.8276C-29.129 58.1577 -14.916 57.4503 -6.58601 48.2478Z" fill="#E6E7E8"/>
<path d="M53.1443 -57.8129C68.004 -106.289 62.428 -133.619 18.1351 -138.215C31.3602 -129.353 44.6183 -117.093 46.0055 -102.882C49.2206 -73.8017 16.7579 -51.1062 33.6485 4.08548C50.5391 59.2771 84.1366 114.045 70.9148 148.976C63.5777 168.245 41.8662 191.085 23.6563 207.767C69.5527 200.859 115.43 160.768 98.8546 120.113C73.9274 59.2013 36.9745 -5.60005 53.1443 -57.8129Z" fill="#1B86C8"/>
</g>
<g filter="url(#filter1_d)">
<path d="M496.016 292.276C496.016 292.276 451.512 335.175 361.773 318.563C272.033 301.951 210.596 239.267 215.653 222.076C220.71 204.886 275.416 217.24 298.633 183.108C321.851 148.977 317.602 157.736 372.394 168.003C427.34 178.242 458.24 168.944 479.363 214.506C500.486 260.068 513.908 272.201 496.016 292.276Z" fill="#4EBA6E"/>
<path d="M272.628 224.45C308.326 244.986 343.246 309.776 399.306 283.499C455.367 257.223 464.028 210.853 414.111 203.652C364.222 196.606 307.392 184.81 307.007 170.869C304.575 174.033 301.825 178.051 298.605 182.955C282.761 206.308 252.168 207.904 232.747 212.183C240.612 211.664 253.543 213.538 272.628 224.45Z" fill="#75C485"/>
<path d="M397.546 240.995C395.682 231.055 386.113 224.508 376.173 226.372C366.233 228.235 359.686 237.804 361.55 247.744C363.414 257.684 372.983 264.231 382.923 262.367C392.863 260.503 399.41 250.934 397.546 240.995Z" fill="#E6E7E8"/>
<path d="M391.547 242.119C390.304 235.493 383.925 231.128 377.298 232.371C370.672 233.613 366.307 239.993 367.55 246.619C368.792 253.246 375.171 257.611 381.798 256.368C388.425 255.125 392.789 248.746 391.547 242.119Z" fill="#414042"/>
</g>
<g filter="url(#filter2_d)">
<path d="M446.304 593.313C446.304 593.313 418.657 561.426 414.755 521.982C410.854 482.539 392.814 446.747 357.309 440.722C321.803 434.697 281.522 486.964 302.412 495.251C323.303 503.538 313.169 520.438 313.169 520.438C313.169 520.438 257.137 540.222 250.225 576.233C243.255 612.393 273.016 658.836 316.98 662.558C360.827 666.576 488.17 649.873 446.304 593.313Z" fill="#F15D4F"/>
<path d="M355.05 623.646C425.966 622.969 374.304 556.521 357.661 532.771C341.077 508.874 308.193 498.402 308.193 498.402C321.182 507.155 313.11 520.586 313.11 520.586C313.11 520.586 294.571 527.121 277.676 539.453C295.483 546.002 284.194 624.174 355.05 623.646Z" fill="#F47E69"/>
<path d="M349.254 604.542C358.827 608.34 369.667 603.657 373.465 594.084C377.262 584.51 372.58 573.67 363.006 569.872C353.433 566.075 342.593 570.757 338.795 580.331C334.998 589.904 339.68 600.744 349.254 604.542Z" fill="#E6E7E8"/>
<path d="M351.546 598.764C357.928 601.295 365.155 598.174 367.687 591.791C370.218 585.409 367.097 578.182 360.714 575.651C354.332 573.119 347.105 576.24 344.574 582.623C342.042 589.005 345.163 596.232 351.546 598.764Z" fill="#414042"/>
<path d="M446.304 593.313C446.304 593.313 433.356 578.403 424.088 556.378C424.088 556.378 429.373 582.824 435.812 598.582C442.25 614.339 443.898 631.797 375.035 646.32C306.024 660.784 252.23 625.213 249.591 582.155C246.673 617.178 275.473 659.125 317.128 662.617C360.827 666.576 488.17 649.873 446.304 593.313Z" fill="#DB5447"/>
</g>
<g filter="url(#filter3_d)">
<path d="M-129.139 503.085C-129.139 503.085 -118.982 509.409 -113.754 525.775C-108.527 542.14 -83.1442 545.621 -67.5392 533.59C-51.927 521.385 19.0679 522.063 48.7218 510.44C78.3756 498.816 131.789 496.336 131.396 463.847C131.003 431.358 104.507 425.4 99.5624 435.788C94.4518 445.996 39.2757 423.918 24.1542 411.659C9.03263 399.399 -37.3923 367.264 -77.2969 374.817C-117.201 382.371 -96.3468 411.364 -101.427 425.046C-106.862 438.887 -144.524 480.395 -129.139 503.085Z" fill="#D95D98"/>
<path d="M-55.8862 495.346C-25.6815 512.397 27.4194 504.868 65.9684 504.899C95.2913 497.082 131.505 490.592 131.229 463.665C131.017 431.01 104.341 425.218 99.3962 435.606C99.3962 435.606 108.798 451.797 78.2706 463.559C47.7428 475.32 39.9659 436.622 -7.2261 423.036C-54.4181 409.45 -101.876 469.48 -55.8862 495.346Z" fill="#F05D96"/>
</g>
</g>
<defs>
<filter id="filter0_d" x="-189.371" y="-143.005" width="299.709" height="363.501" filterUnits="userSpaceOnUse" color-interpolation-filters="sRGB">
<feFlood flood-opacity="0" result="BackgroundImageFix"/>
<feColorMatrix in="SourceAlpha" type="matrix" values="0 0 0 0 0 0 0 0 0 0 0 0 0 0 0 0 0 0 127 0"/>
<feOffset dy="4"/>
<feGaussianBlur stdDeviation="4"/>
<feColorMatrix type="matrix" values="0 0 0 0 0 0 0 0 0 0 0 0 0 0 0 0 0 0 0.25 0"/>
<feBlend mode="normal" in2="BackgroundImageFix" result="effect1_dropShadow"/>
<feBlend mode="normal" in="SourceGraphic" in2="effect1_dropShadow" result="shape"/>
</filter>
<filter id="filter1_d" x="207.363" y="154.82" width="304.986" height="179.567" filterUnits="userSpaceOnUse" color-interpolation-filters="sRGB">
<feFlood flood-opacity="0" result="BackgroundImageFix"/>
<feColorMatrix in="SourceAlpha" type="matrix" values="0 0 0 0 0 0 0 0 0 0 0 0 0 0 0 0 0 0 127 0"/>
<feOffset dy="4"/>
<feGaussianBlur stdDeviation="4"/>
<feColorMatrix type="matrix" values="0 0 0 0 0 0 0 0 0 0 0 0 0 0 0 0 0 0 0.25 0"/>
<feBlend mode="normal" in2="BackgroundImageFix" result="effect1_dropShadow"/>
<feBlend mode="normal" in="SourceGraphic" in2="effect1_dropShadow" result="shape"/>
</filter>
<filter id="filter2_d" x="241.213" y="436.24" width="221.42" height="238.931" filterUnits="userSpaceOnUse" color-interpolation-filters="sRGB">
<feFlood flood-opacity="0" result="BackgroundImageFix"/>
<feColorMatrix in="SourceAlpha" type="matrix" values="0 0 0 0 0 0 0 0 0 0 0 0 0 0 0 0 0 0 127 0"/>
<feOffset dy="4"/>
<feGaussianBlur stdDeviation="4"/>
<feColorMatrix type="matrix" values="0 0 0 0 0 0 0 0 0 0 0 0 0 0 0 0 0 0 0.25 0"/>
<feBlend mode="normal" in2="BackgroundImageFix" result="effect1_dropShadow"/>
<feBlend mode="normal" in="SourceGraphic" in2="effect1_dropShadow" result="shape"/>
</filter>
<filter id="filter3_d" x="-140.964" y="369.681" width="280.362" height="183.068" filterUnits="userSpaceOnUse" color-interpolation-filters="sRGB">
<feFlood flood-opacity="0" result="BackgroundImageFix"/>
<feColorMatrix in="SourceAlpha" type="matrix" values="0 0 0 0 0 0 0 0 0 0 0 0 0 0 0 0 0 0 127 0"/>
<feOffset dy="4"/>
<feGaussianBlur stdDeviation="4"/>
<feColorMatrix type="matrix" values="0 0 0 0 0 0 0 0 0 0 0 0 0 0 0 0 0 0 0.25 0"/>
<feBlend mode="normal" in2="BackgroundImageFix" result="effect1_dropShadow"/>
<feBlend mode="normal" in="SourceGraphic" in2="effect1_dropShadow" result="shape"/>
</filter>
<clipPath id="clip0">
<rect width="375" height="667" fill="white"/>
</clipPath>
</defs>
</svg>
