<svg width="375" height="667" viewBox="0 0 375 667" fill="none" xmlns="http://www.w3.org/2000/svg">
<g clip-path="url(#clip0)">
<rect width="375" height="667" fill="white"/>
<g filter="url(#filter0_d)">
<path d="M19.707 77.7897C19.707 77.7897 2.67548 69.1338 3.55242 42.8796C4.42936 16.6254 17.5541 -27.1494 34.699 -28.2728C51.8439 -29.3963 111.021 -14.368 109.943 12.5567C108.865 39.4813 72.4667 34.8322 62.6788 41.711C53.0155 48.5227 46.5096 93.5512 19.707 77.7897Z" fill="#955BA5"/>
<path d="M60.3175 9.89239C62.1732 3.70287 58.66 -2.81913 52.4705 -4.67489C46.281 -6.53065 39.759 -3.01743 37.9032 3.17209C36.0475 9.3616 39.5607 15.8836 45.7502 17.7394C51.9397 19.5951 58.4617 16.0819 60.3175 9.89239Z" fill="#E6E7E8"/>
<path d="M56.5817 8.77236C57.8189 4.64601 55.4768 0.298031 51.3504 -0.939143C47.2241 -2.17632 42.8761 0.165807 41.6389 4.29215C40.4017 8.4185 42.7439 12.7665 46.8702 14.0037C50.9966 15.2408 55.3446 12.8987 56.5817 8.77236Z" fill="#414042"/>
<path d="M86.9314 -14.8047C101.081 -0.0181279 100.116 16.0831 84.0727 17.0148C62.6942 18.3305 52.3606 27.0292 42.6432 54.9131C37.9042 68.63 31.6509 76.2553 26.4697 80.6525C47.6289 85.6394 53.8199 47.9287 62.6788 41.711C72.4667 34.8322 108.865 39.4813 109.943 12.5567C110.42 1.21593 100.237 -7.99669 86.9314 -14.8047Z" fill="#884B9D"/>
</g>
<g filter="url(#filter1_d)">
<path d="M491.016 616.358C491.016 616.358 446.512 659.257 356.773 642.645C267.033 626.033 205.596 563.349 210.653 546.159C215.71 528.968 270.416 541.322 293.633 507.191C316.851 473.06 312.602 481.818 367.394 492.086C422.34 502.324 453.24 493.027 474.363 538.588C495.486 584.15 508.908 596.283 491.016 616.358Z" fill="#4EBA6E"/>
<path d="M267.628 548.533C303.326 569.068 338.246 633.858 394.306 607.582C450.367 581.305 459.028 534.935 409.111 527.735C359.222 520.688 302.392 508.892 302.007 494.952C299.575 498.115 296.825 502.134 293.605 507.037C277.761 530.39 247.168 531.987 227.747 536.265C235.612 535.746 248.543 537.621 267.628 548.533Z" fill="#75C485"/>
<path d="M392.546 565.077C390.682 555.137 381.113 548.59 371.173 550.454C361.233 552.318 354.686 561.887 356.55 571.827C358.414 581.767 367.983 588.314 377.923 586.45C387.863 584.586 394.41 575.017 392.546 565.077Z" fill="#E6E7E8"/>
<path d="M386.547 566.202C385.304 559.575 378.925 555.211 372.298 556.453C365.672 557.696 361.307 564.075 362.55 570.702C363.792 577.328 370.171 581.693 376.798 580.45C383.425 579.208 387.789 572.828 386.547 566.202Z" fill="#414042"/>
</g>
<g filter="url(#filter2_d)">
<path d="M371.121 354.499C371.121 354.499 408.87 341.689 426.296 305.35C443.722 269.011 439.435 238.245 430.449 232.989C421.33 227.698 398.953 233.093 392.705 227.717C386.492 222.208 385.971 205.551 360.995 198.859C336.019 192.166 310.589 224.367 301.595 225.517C292.734 226.702 267.474 205.126 262.138 214.945C257.556 223.542 248.666 285.947 282.696 315.712C289.369 321.629 299.655 320.968 305.573 314.295C310.674 308.543 318.902 303.343 330.726 306.511C353.78 312.404 312.233 360.648 371.121 354.499Z" fill="#F8BE37"/>
<path d="M392.74 227.584C386.527 222.075 386.007 205.418 361.031 198.726C336.054 192.033 310.624 224.234 301.63 225.384C299.725 225.586 297.201 224.909 294.119 223.656C297.298 225.078 308.968 231.48 318.506 249.556C329.528 270.593 333.396 288.574 357.654 288.381C393.323 288.114 369.483 235.734 397.591 230.735C398.628 230.586 399.568 230.268 400.472 230.083C397.176 229.627 394.351 229.012 392.74 227.584Z" fill="#FFCE4B"/>
<path d="M352.124 268.104C360.708 270.404 369.532 265.31 371.832 256.725C374.132 248.14 369.038 239.317 360.453 237.016C351.869 234.716 343.045 239.811 340.745 248.395C338.445 256.98 343.539 265.804 352.124 268.104Z" fill="#E6E7E8"/>
<path d="M353.512 262.923C359.235 264.456 365.117 261.06 366.651 255.337C368.184 249.614 364.788 243.731 359.065 242.198C353.342 240.664 347.459 244.06 345.926 249.783C344.392 255.506 347.789 261.389 353.512 262.923Z" fill="#414042"/>
<path d="M436.303 241.962C431.35 264.699 420.398 302.915 399.942 317.084C370.069 337.7 352.091 347.406 349.463 329.046C346.872 310.553 344.267 288.923 314.325 307.67C318.731 305.575 324.252 304.634 330.894 306.414C353.878 312.572 312.233 360.648 371.254 354.534C371.254 354.534 409.003 341.724 426.429 305.385C439.192 278.476 440.16 254.672 436.303 241.962Z" fill="#F8B32B"/>
</g>
<g filter="url(#filter3_d)">
<path d="M6.67177 200.995C6.67177 200.995 -12.6331 201.14 -32.2623 224.829C-51.8915 248.518 -87.7501 260.366 -116.381 256.215C-158.842 250.168 -220.158 351.684 -148.211 387.272C-76.2639 422.859 -83.4062 478.839 -37.2317 529.445C8.94281 580.052 123.755 520.482 98.8411 459.842C73.9273 399.201 37.1034 334.258 53.0018 282.058C69.1716 229.845 61.5268 201.938 6.67177 200.995Z" fill="#2E95D2"/>
<path d="M-61.1682 351.796C-97.135 391.53 -112.638 405.221 -144.718 389.138C-76.2983 424.901 -82.5382 479.884 -37.0893 529.574C-33.346 533.74 -29.2429 536.936 -24.7532 539.704C-24.1134 530.697 -21.1802 518.583 -13.4232 502.284C7.75073 457.711 27.8489 429.782 22.2767 386.132C16.7045 342.481 -24.0411 310.78 -61.1682 351.796Z" fill="#40A3DB"/>
<path d="M-6.58601 388.248C1.74402 379.045 1.03674 364.832 -8.16577 356.502C-17.3683 348.172 -31.5812 348.88 -39.9113 358.082C-48.2413 367.285 -47.534 381.498 -38.3315 389.828C-29.129 398.158 -14.916 397.45 -6.58601 388.248Z" fill="#E6E7E8"/>
<path d="M-62.3426 298.134C-45.7954 313.631 2.27424 295.735 -26.061 218.264C-28.1371 220.272 -30.0708 222.408 -32.2623 224.829C-51.8916 248.518 -87.7501 260.366 -116.381 256.215C-116.367 256.486 -78.8898 282.638 -62.3426 298.134Z" fill="#40A3DB"/>
<path d="M53.1443 282.187C68.004 233.711 62.428 206.381 18.1351 201.785C31.3602 210.647 44.6183 222.907 46.0055 237.118C49.2206 266.198 16.7579 288.894 33.6485 344.085C50.5391 399.277 84.1366 454.045 70.9148 488.975C63.5777 508.245 41.8662 531.085 23.6563 547.767C69.5527 540.859 115.43 500.768 98.8546 460.113C73.9274 399.201 36.9745 334.4 53.1443 282.187Z" fill="#1B86C8"/>
</g>
<g filter="url(#filter4_d)">
<path d="M389.927 -54.0984C371.915 -52.3388 334.689 -49.9239 298.416 -55.5768C286.786 -57.3943 275.254 -52.2045 269.273 -41.9914C264.382 -33.7965 259.339 -23.0655 256.598 -11.1373C253.515 2.11999 260.401 15.5921 272.886 21.138C291.87 29.6353 322.031 47.5585 339.501 81.417C344.837 91.708 356.204 97.64 367.721 96.335C381.741 94.8443 400.666 90.6756 419.015 79.48C429.594 72.9562 435.14 60.4709 432.081 48.45C429.232 37.1572 427.448 20.9192 432.911 2.24266C434.762 -4.34936 434.469 -11.2687 431.6 -17.3818C427.994 -25.3956 422.057 -36.2388 413.647 -45.264C407.48 -51.6555 398.693 -54.9879 389.927 -54.0984Z" fill="#F26522"/>
<path d="M380 62.2509C425.059 61.8344 405.375 3.46984 431.351 -17.1521C427.745 -25.166 421.807 -36.0091 413.397 -45.0344C407.426 -51.5138 398.64 -54.8462 389.873 -53.9567C371.861 -52.1971 334.636 -49.7822 298.362 -55.4351C295.597 -55.8357 292.865 -55.8991 290.309 -55.5717C290.309 -55.5717 325.146 -49.9774 332.575 -6.31128C339.774 37.1057 334.995 62.5257 380 62.2509Z" fill="#F7941E"/>
<path d="M375.289 41.3365C384.446 44.8096 394.685 40.2019 398.158 31.0449C401.631 21.8878 397.023 11.6491 387.866 8.176C378.709 4.7029 368.471 9.31062 364.997 18.4676C361.524 27.6247 366.132 37.8634 375.289 41.3365Z" fill="#E6E7E8"/>
<path d="M377.385 35.8098C383.49 38.1252 390.316 35.0534 392.631 28.9487C394.947 22.844 391.875 16.0182 385.77 13.7028C379.665 11.3874 372.84 14.4592 370.524 20.5639C368.209 26.6686 371.281 33.4944 377.385 35.8098Z" fill="#414042"/>
<path d="M418.961 79.6217C424.224 76.4306 428.109 71.7443 430.435 66.4668C414.852 73.3621 388.132 83.9764 371.401 84.9248C346.684 86.4109 340.209 53.4805 303.08 25.2957C285.214 11.7115 269.514 7.37752 258.182 6.48356C260.943 12.88 266.05 18.2209 272.886 21.138C291.87 29.6353 322.031 47.5584 339.501 81.417C344.837 91.708 356.204 97.64 367.721 96.335C381.687 94.9859 400.613 90.8173 418.961 79.6217Z" fill="#DE5426"/>
</g>
</g>
<defs>
<filter id="filter0_d" x="-4.48035" y="-32.3316" width="122.439" height="125.446" filterUnits="userSpaceOnUse" color-interpolation-filters="sRGB">
<feFlood flood-opacity="0" result="BackgroundImageFix"/>
<feColorMatrix in="SourceAlpha" type="matrix" values="0 0 0 0 0 0 0 0 0 0 0 0 0 0 0 0 0 0 127 0"/>
<feOffset dy="4"/>
<feGaussianBlur stdDeviation="4"/>
<feColorMatrix type="matrix" values="0 0 0 0 0 0 0 0 0 0 0 0 0 0 0 0 0 0 0.25 0"/>
<feBlend mode="normal" in2="BackgroundImageFix" result="effect1_dropShadow"/>
<feBlend mode="normal" in="SourceGraphic" in2="effect1_dropShadow" result="shape"/>
</filter>
<filter id="filter1_d" x="202.363" y="478.902" width="304.986" height="179.567" filterUnits="userSpaceOnUse" color-interpolation-filters="sRGB">
<feFlood flood-opacity="0" result="BackgroundImageFix"/>
<feColorMatrix in="SourceAlpha" type="matrix" values="0 0 0 0 0 0 0 0 0 0 0 0 0 0 0 0 0 0 127 0"/>
<feOffset dy="4"/>
<feGaussianBlur stdDeviation="4"/>
<feColorMatrix type="matrix" values="0 0 0 0 0 0 0 0 0 0 0 0 0 0 0 0 0 0 0.25 0"/>
<feBlend mode="normal" in2="BackgroundImageFix" result="effect1_dropShadow"/>
<feBlend mode="normal" in="SourceGraphic" in2="effect1_dropShadow" result="shape"/>
</filter>
<filter id="filter2_d" x="217.583" y="161.811" width="260.712" height="237.259" filterUnits="userSpaceOnUse" color-interpolation-filters="sRGB">
<feFlood flood-opacity="0" result="BackgroundImageFix"/>
<feColorMatrix in="SourceAlpha" type="matrix" values="0 0 0 0 0 0 0 0 0 0 0 0 0 0 0 0 0 0 127 0"/>
<feOffset dy="4"/>
<feGaussianBlur stdDeviation="20"/>
<feColorMatrix type="matrix" values="0 0 0 0 0 0 0 0 0 0 0 0 0 0 0 0 0 0 0.25 0"/>
<feBlend mode="normal" in2="BackgroundImageFix" result="effect1_dropShadow"/>
<feBlend mode="normal" in="SourceGraphic" in2="effect1_dropShadow" result="shape"/>
</filter>
<filter id="filter3_d" x="-189.371" y="196.995" width="299.709" height="363.501" filterUnits="userSpaceOnUse" color-interpolation-filters="sRGB">
<feFlood flood-opacity="0" result="BackgroundImageFix"/>
<feColorMatrix in="SourceAlpha" type="matrix" values="0 0 0 0 0 0 0 0 0 0 0 0 0 0 0 0 0 0 127 0"/>
<feOffset dy="4"/>
<feGaussianBlur stdDeviation="4"/>
<feColorMatrix type="matrix" values="0 0 0 0 0 0 0 0 0 0 0 0 0 0 0 0 0 0 0.25 0"/>
<feBlend mode="normal" in2="BackgroundImageFix" result="effect1_dropShadow"/>
<feBlend mode="normal" in="SourceGraphic" in2="effect1_dropShadow" result="shape"/>
</filter>
<filter id="filter4_d" x="223.866" y="-83.9348" width="242.211" height="216.448" filterUnits="userSpaceOnUse" color-interpolation-filters="sRGB">
<feFlood flood-opacity="0" result="BackgroundImageFix"/>
<feColorMatrix in="SourceAlpha" type="matrix" values="0 0 0 0 0 0 0 0 0 0 0 0 0 0 0 0 0 0 127 0"/>
<feOffset dy="4"/>
<feGaussianBlur stdDeviation="16"/>
<feColorMatrix type="matrix" values="0 0 0 0 0 0 0 0 0 0 0 0 0 0 0 0 0 0 0.25 0"/>
<feBlend mode="normal" in2="BackgroundImageFix" result="effect1_dropShadow"/>
<feBlend mode="normal" in="SourceGraphic" in2="effect1_dropShadow" result="shape"/>
</filter>
<clipPath id="clip0">
<rect width="375" height="667" fill="white"/>
</clipPath>
</defs>
</svg>
